<?xml version="1.0" encoding="UTF-8" standalone="no"?><!DOCTYPE svg PUBLIC "-//W3C//DTD SVG 1.1//EN" "http://www.w3.org/Graphics/SVG/1.1/DTD/svg11.dtd"><!-- Generated by graphviz version 2.40.1 (20161225.0304)
 --><!-- Title: dependency&#45;cruiser output Pages: 1 --><svg xmlns="http://www.w3.org/2000/svg" xmlns:xlink="http://www.w3.org/1999/xlink" width="417pt" height="446pt" viewBox="0.00 0.00 417.05 446.00">
<g id="graph0" class="graph" transform="scale(1 1) rotate(0) translate(4 442)">
<title>dependency-cruiser output</title>
<polygon fill="#ffffff" stroke="transparent" points="-4,4 -4,-442 413.0462,-442 413.0462,4 -4,4"/>
<g id="clust1" class="cluster">
<title>cluster_src</title>
<path fill="#ffffff" stroke="#000000" stroke-width="2" d="M20,-8C20,-8 389.0462,-8 389.0462,-8 395.0462,-8 401.0462,-14 401.0462,-20 401.0462,-20 401.0462,-418 401.0462,-418 401.0462,-424 395.0462,-430 389.0462,-430 389.0462,-430 20,-430 20,-430 14,-430 8,-424 8,-418 8,-418 8,-20 8,-20 8,-14 14,-8 20,-8"/>
<text text-anchor="middle" x="204.5231" y="-417.9" font-family="Helvetica,sans-Serif" font-weight="bold" font-size="9.00" fill="#000000">src</text>
</g>
<g id="clust2" class="cluster">
<title>cluster_src/components</title>
<path fill="#ffffff" stroke="#000000" stroke-width="2" d="M32.7503,-135C32.7503,-135 378.5455,-135 378.5455,-135 384.5455,-135 390.5455,-141 390.5455,-147 390.5455,-147 390.5455,-238 390.5455,-238 390.5455,-244 384.5455,-250 378.5455,-250 378.5455,-250 32.7503,-250 32.7503,-250 26.7503,-250 20.7503,-244 20.7503,-238 20.7503,-238 20.7503,-147 20.7503,-147 20.7503,-141 26.7503,-135 32.7503,-135"/>
<text text-anchor="middle" x="205.6479" y="-237.9" font-family="Helvetica,sans-Serif" font-weight="bold" font-size="9.00" fill="#000000">components</text>
</g>
<g id="clust3" class="cluster">
<title>cluster_src/data</title>
<path fill="#ffffff" stroke="#000000" stroke-width="2" d="M191.5175,-258C191.5175,-258 285.535,-258 285.535,-258 291.535,-258 297.535,-264 297.535,-270 297.535,-270 297.535,-299 297.535,-299 297.535,-305 291.535,-311 285.535,-311 285.535,-311 191.5175,-311 191.5175,-311 185.5175,-311 179.5175,-305 179.5175,-299 179.5175,-299 179.5175,-270 179.5175,-270 179.5175,-264 185.5175,-258 191.5175,-258"/>
<text text-anchor="middle" x="238.5262" y="-298.9" font-family="Helvetica,sans-Serif" font-weight="bold" font-size="9.00" fill="#000000">data</text>
</g>
<g id="clust4" class="cluster">
<title>cluster_src/utils</title>
<path fill="#ffffff" stroke="#000000" stroke-width="2" d="M194.2674,-319C194.2674,-319 381.0462,-319 381.0462,-319 387.0462,-319 393.0462,-325 393.0462,-331 393.0462,-331 393.0462,-391 393.0462,-391 393.0462,-397 387.0462,-403 381.0462,-403 381.0462,-403 194.2674,-403 194.2674,-403 188.2674,-403 182.2674,-397 182.2674,-391 182.2674,-391 182.2674,-331 182.2674,-331 182.2674,-325 188.2674,-319 194.2674,-319"/>
<text text-anchor="middle" x="287.6568" y="-390.9" font-family="Helvetica,sans-Serif" font-weight="bold" font-size="9.00" fill="#000000">utils</text>
</g>
<!-- src/components/App.css -->
<g id="node1" class="node">
<title>src/components/App.css</title>
<g id="a_node1"><a xlink:href="src/components/App.css" xlink:title="App.css">
<path fill="#ffffcc" stroke="#000000" d="M259.3255,-161.3011C259.3255,-161.3011 217.727,-161.3011 217.727,-161.3011 214.6266,-161.3011 211.5262,-158.2007 211.5262,-155.1004 211.5262,-155.1004 211.5262,-148.8996 211.5262,-148.8996 211.5262,-145.7993 214.6266,-142.6989 217.727,-142.6989 217.727,-142.6989 259.3255,-142.6989 259.3255,-142.6989 262.4259,-142.6989 265.5263,-145.7993 265.5263,-148.8996 265.5263,-148.8996 265.5263,-155.1004 265.5263,-155.1004 265.5263,-158.2007 262.4259,-161.3011 259.3255,-161.3011"/>
<text text-anchor="start" x="222.5216" y="-149.3" font-family="Helvetica,sans-Serif" font-size="9.00" fill="#000000">App.css</text>
</a>
</g>
</g>
<!-- src/components/App.test.tsx -->
<g id="node2" class="node">
<title>src/components/App.test.tsx</title>
<g id="a_node2"><a xlink:href="src/components/App.test.tsx" xlink:title="App.test.tsx">
<path fill="#bbfeff" stroke="#000000" d="M85.575,-223.3011C85.575,-223.3011 34.9425,-223.3011 34.9425,-223.3011 31.8422,-223.3011 28.7418,-220.2007 28.7418,-217.1004 28.7418,-217.1004 28.7418,-210.8996 28.7418,-210.8996 28.7418,-207.7993 31.8422,-204.6989 34.9425,-204.6989 34.9425,-204.6989 85.575,-204.6989 85.575,-204.6989 88.6753,-204.6989 91.7757,-207.7993 91.7757,-210.8996 91.7757,-210.8996 91.7757,-217.1004 91.7757,-217.1004 91.7757,-220.2007 88.6753,-223.3011 85.575,-223.3011"/>
<text text-anchor="start" x="36.7503" y="-211.3" font-family="Helvetica,sans-Serif" font-size="9.00" fill="#000000">App.test.tsx</text>
</a>
</g>
</g>
<!-- src/components/App.tsx -->
<g id="node3" class="node">
<title>src/components/App.tsx</title>
<g id="a_node3"><a xlink:href="src/components/App.tsx" xlink:title="App.tsx">
<path fill="#bbfeff" stroke="#000000" d="M165.3168,-223.3011C165.3168,-223.3011 123.7182,-223.3011 123.7182,-223.3011 120.6179,-223.3011 117.5175,-220.2007 117.5175,-217.1004 117.5175,-217.1004 117.5175,-210.8996 117.5175,-210.8996 117.5175,-207.7993 120.6179,-204.6989 123.7182,-204.6989 123.7182,-204.6989 165.3168,-204.6989 165.3168,-204.6989 168.4171,-204.6989 171.5175,-207.7993 171.5175,-210.8996 171.5175,-210.8996 171.5175,-217.1004 171.5175,-217.1004 171.5175,-220.2007 168.4171,-223.3011 165.3168,-223.3011"/>
<text text-anchor="start" x="129.5123" y="-211.3" font-family="Helvetica,sans-Serif" font-size="9.00" fill="#000000">App.tsx</text>
</a>
</g>
</g>
<!-- src/components/App.test.tsx&#45;&gt;src/components/App.tsx -->
<g id="edge1" class="edge">
<title>src/components/App.test.tsx-&gt;src/components/App.tsx</title>
<path fill="none" stroke="#000000" stroke-width="2" stroke-opacity="0.200000" d="M92.1134,-214C98.3348,-214 104.8747,-214 111.1439,-214"/>
<polygon fill="#000000" fill-opacity="0.200000" stroke="#000000" stroke-width="2" stroke-opacity="0.200000" points="111.3011,-216.1001 117.3011,-214 111.301,-211.9001 111.3011,-216.1001"/>
</g>
<!-- src/components/App.tsx&#45;&gt;src/components/App.css -->
<g id="edge5" class="edge">
<title>src/components/App.tsx-&gt;src/components/App.css</title>
<path fill="none" stroke="#000000" stroke-width="2" stroke-opacity="0.200000" d="M149.33,-204.3909C155.0853,-193.8832 165.6996,-177.3035 179.5175,-168 187.1721,-162.8462 196.4331,-159.3476 205.3266,-156.9744"/>
<polygon fill="#000000" fill-opacity="0.200000" stroke="#000000" stroke-width="2" stroke-opacity="0.200000" points="206.0628,-158.9569 211.4007,-155.5046 205.075,-154.8747 206.0628,-158.9569"/>
</g>
<!-- src/data/babyNamesData.json -->
<g id="node4" class="node">
<title>src/data/babyNamesData.json</title>
<g id="a_node4"><a xlink:href="src/data/babyNamesData.json" xlink:title="babyNamesData.json">
<path fill="#ffee44" stroke="#000000" d="M283.343,-284.3011C283.343,-284.3011 193.7095,-284.3011 193.7095,-284.3011 190.6091,-284.3011 187.5087,-281.2007 187.5087,-278.1004 187.5087,-278.1004 187.5087,-271.8996 187.5087,-271.8996 187.5087,-268.7993 190.6091,-265.6989 193.7095,-265.6989 193.7095,-265.6989 283.343,-265.6989 283.343,-265.6989 286.4434,-265.6989 289.5438,-268.7993 289.5438,-271.8996 289.5438,-271.8996 289.5438,-278.1004 289.5438,-278.1004 289.5438,-281.2007 286.4434,-284.3011 283.343,-284.3011"/>
<text text-anchor="start" x="195.5175" y="-272.3" font-family="Helvetica,sans-Serif" font-size="9.00" fill="#000000">babyNamesData.json</text>
</a>
</g>
</g>
<!-- src/components/App.tsx&#45;&gt;src/data/babyNamesData.json -->
<g id="edge2" class="edge">
<title>src/components/App.tsx-&gt;src/data/babyNamesData.json</title>
<path fill="none" stroke="#000000" stroke-width="2" stroke-opacity="0.200000" d="M150.9981,-223.5453C157.3579,-232.2743 167.7891,-245.0083 179.5175,-253 185.5175,-257.0884 192.3752,-260.536 199.2421,-263.4003"/>
<polygon fill="#000000" fill-opacity="0.200000" stroke="#000000" stroke-width="2" stroke-opacity="0.200000" points="198.6417,-265.4209 204.9937,-265.6703 200.1836,-261.5142 198.6417,-265.4209"/>
</g>
<!-- src/utils/searchFunctions.ts -->
<g id="node5" class="node">
<title>src/utils/searchFunctions.ts</title>
<g id="a_node5"><a xlink:href="src/utils/searchFunctions.ts" xlink:title="searchFunctions.ts">
<path fill="#ddfeff" stroke="#000000" d="M277.8431,-376.3011C277.8431,-376.3011 199.2094,-376.3011 199.2094,-376.3011 196.109,-376.3011 193.0087,-373.2007 193.0087,-370.1004 193.0087,-370.1004 193.0087,-363.8996 193.0087,-363.8996 193.0087,-360.7993 196.109,-357.6989 199.2094,-357.6989 199.2094,-357.6989 277.8431,-357.6989 277.8431,-357.6989 280.9435,-357.6989 284.0438,-360.7993 284.0438,-363.8996 284.0438,-363.8996 284.0438,-370.1004 284.0438,-370.1004 284.0438,-373.2007 280.9435,-376.3011 277.8431,-376.3011"/>
<text text-anchor="start" x="200.7681" y="-364.3" font-family="Helvetica,sans-Serif" font-size="9.00" fill="#000000">searchFunctions.ts</text>
</a>
</g>
</g>
<!-- src/components/App.tsx&#45;&gt;src/utils/searchFunctions.ts -->
<g id="edge3" class="edge">
<title>src/components/App.tsx-&gt;src/utils/searchFunctions.ts</title>
<path fill="none" stroke="#000000" stroke-width="2" stroke-opacity="0.200000" d="M145.6966,-223.5013C149.3498,-251.4456 161.339,-332.5531 179.5175,-351 181.8923,-353.4099 184.5906,-355.4677 187.4949,-357.2237"/>
<polygon fill="#000000" fill-opacity="0.200000" stroke="#000000" stroke-width="2" stroke-opacity="0.200000" points="186.631,-359.1419 192.9199,-360.0696 188.5821,-355.4226 186.631,-359.1419"/>
</g>
<!-- src/utils/sortFunctions.ts -->
<g id="node6" class="node">
<title>src/utils/sortFunctions.ts</title>
<g id="a_node6"><a xlink:href="src/utils/sortFunctions.ts" xlink:title="sortFunctions.ts">
<path fill="#ddfeff" stroke="#000000" d="M378.6026,-360.3011C378.6026,-360.3011 311.9786,-360.3011 311.9786,-360.3011 308.8783,-360.3011 305.7779,-357.2007 305.7779,-354.1004 305.7779,-354.1004 305.7779,-347.8996 305.7779,-347.8996 305.7779,-344.7993 308.8783,-341.6989 311.9786,-341.6989 311.9786,-341.6989 378.6026,-341.6989 378.6026,-341.6989 381.7029,-341.6989 384.8033,-344.7993 384.8033,-347.8996 384.8033,-347.8996 384.8033,-354.1004 384.8033,-354.1004 384.8033,-357.2007 381.7029,-360.3011 378.6026,-360.3011"/>
<text text-anchor="start" x="313.535" y="-348.3" font-family="Helvetica,sans-Serif" font-size="9.00" fill="#000000">sortFunctions.ts</text>
</a>
</g>
</g>
<!-- src/components/App.tsx&#45;&gt;src/utils/sortFunctions.ts -->
<g id="edge4" class="edge">
<title>src/components/App.tsx-&gt;src/utils/sortFunctions.ts</title>
<path fill="none" stroke="#000000" stroke-width="2" stroke-opacity="0.200000" d="M144.9855,-223.5362C146.799,-256.0548 154.5528,-361.7003 179.5175,-382 220.2137,-415.0916 247.2414,-396.8925 297.535,-382 309.3082,-378.5138 320.8999,-371.112 329.7143,-364.4153"/>
<polygon fill="#000000" fill-opacity="0.200000" stroke="#000000" stroke-width="2" stroke-opacity="0.200000" points="331.4163,-365.7467 334.8204,-360.378 328.8114,-362.4521 331.4163,-365.7467"/>
</g>
<!-- src/components/BabyNameList.tsx -->
<g id="node7" class="node">
<title>src/components/BabyNameList.tsx</title>
<g id="a_node7"><a xlink:href="src/components/BabyNameList.tsx" xlink:title="BabyNameList.tsx">
<path fill="#bbfeff" stroke="#000000" d="M276.3381,-192.3011C276.3381,-192.3011 200.7144,-192.3011 200.7144,-192.3011 197.6141,-192.3011 194.5137,-189.2007 194.5137,-186.1004 194.5137,-186.1004 194.5137,-179.8996 194.5137,-179.8996 194.5137,-176.7993 197.6141,-173.6989 200.7144,-173.6989 200.7144,-173.6989 276.3381,-173.6989 276.3381,-173.6989 279.4384,-173.6989 282.5388,-176.7993 282.5388,-179.8996 282.5388,-179.8996 282.5388,-186.1004 282.5388,-186.1004 282.5388,-189.2007 279.4384,-192.3011 276.3381,-192.3011"/>
<text text-anchor="start" x="202.2707" y="-180.3" font-family="Helvetica,sans-Serif" font-size="9.00" fill="#000000">BabyNameList.tsx</text>
</a>
</g>
</g>
<!-- src/components/App.tsx&#45;&gt;src/components/BabyNameList.tsx -->
<g id="edge6" class="edge">
<title>src/components/App.tsx-&gt;src/components/BabyNameList.tsx</title>
<path fill="none" stroke="#000000" stroke-width="2" stroke-opacity="0.200000" d="M165.0569,-204.6299C169.7598,-202.6438 174.7722,-200.6511 179.5175,-199 184.4172,-197.2952 189.5969,-195.6582 194.7711,-194.1252"/>
<polygon fill="#000000" fill-opacity="0.200000" stroke="#000000" stroke-width="2" stroke-opacity="0.200000" points="195.6443,-196.0588 200.8254,-192.3755 194.4782,-192.0239 195.6443,-196.0588"/>
</g>
<!-- src/components/SearchBar.tsx -->
<g id="node8" class="node">
<title>src/components/SearchBar.tsx</title>
<g id="a_node8"><a xlink:href="src/components/SearchBar.tsx" xlink:title="SearchBar.tsx">
<path fill="#bbfeff" stroke="#000000" d="M268.3382,-223.3011C268.3382,-223.3011 208.7143,-223.3011 208.7143,-223.3011 205.614,-223.3011 202.5136,-220.2007 202.5136,-217.1004 202.5136,-217.1004 202.5136,-210.8996 202.5136,-210.8996 202.5136,-207.7993 205.614,-204.6989 208.7143,-204.6989 208.7143,-204.6989 268.3382,-204.6989 268.3382,-204.6989 271.4385,-204.6989 274.5389,-207.7993 274.5389,-210.8996 274.5389,-210.8996 274.5389,-217.1004 274.5389,-217.1004 274.5389,-220.2007 271.4385,-223.3011 268.3382,-223.3011"/>
<text text-anchor="start" x="210.2707" y="-211.3" font-family="Helvetica,sans-Serif" font-size="9.00" fill="#000000">SearchBar.tsx</text>
</a>
</g>
</g>
<!-- src/components/App.tsx&#45;&gt;src/components/SearchBar.tsx -->
<g id="edge7" class="edge">
<title>src/components/App.tsx-&gt;src/components/SearchBar.tsx</title>
<path fill="none" stroke="#000000" stroke-width="2" stroke-opacity="0.200000" d="M171.7087,-214C179.3141,-214 187.7665,-214 196.0313,-214"/>
<polygon fill="#000000" fill-opacity="0.200000" stroke="#000000" stroke-width="2" stroke-opacity="0.200000" points="196.2977,-216.1001 202.2977,-214 196.2976,-211.9001 196.2977,-216.1001"/>
</g>
<!-- src/components/BabyName.tsx -->
<g id="node9" class="node">
<title>src/components/BabyName.tsx</title>
<g id="a_node9"><a xlink:href="src/components/BabyName.tsx" xlink:title="BabyName.tsx">
<path fill="#bbfeff" stroke="#000000" d="M376.1014,-192.3011C376.1014,-192.3011 314.4798,-192.3011 314.4798,-192.3011 311.3794,-192.3011 308.2791,-189.2007 308.2791,-186.1004 308.2791,-186.1004 308.2791,-179.8996 308.2791,-179.8996 308.2791,-176.7993 311.3794,-173.6989 314.4798,-173.6989 314.4798,-173.6989 376.1014,-173.6989 376.1014,-173.6989 379.2018,-173.6989 382.3021,-176.7993 382.3021,-179.8996 382.3021,-179.8996 382.3021,-186.1004 382.3021,-186.1004 382.3021,-189.2007 379.2018,-192.3011 376.1014,-192.3011"/>
<text text-anchor="start" x="316.0356" y="-180.3" font-family="Helvetica,sans-Serif" font-size="9.00" fill="#000000">BabyName.tsx</text>
</a>
</g>
</g>
<!-- src/components/BabyNameList.tsx&#45;&gt;src/components/BabyName.tsx -->
<g id="edge8" class="edge">
<title>src/components/BabyNameList.tsx-&gt;src/components/BabyName.tsx</title>
<path fill="none" stroke="#000000" stroke-width="2" stroke-opacity="0.200000" d="M282.5678,-183C288.9437,-183 295.503,-183 301.8667,-183"/>
<polygon fill="#000000" fill-opacity="0.200000" stroke="#000000" stroke-width="2" stroke-opacity="0.200000" points="302.151,-185.1001 308.151,-183 302.1509,-180.9001 302.151,-185.1001"/>
</g>
<!-- src/index.tsx -->
<g id="node10" class="node">
<title>src/index.tsx</title>
<g id="a_node10"><a xlink:href="src/index.tsx" xlink:title="index.tsx">
<path fill="#bbfeff" stroke="#000000" d="M81.058,-127.3011C81.058,-127.3011 39.4595,-127.3011 39.4595,-127.3011 36.3591,-127.3011 33.2588,-124.2007 33.2588,-121.1004 33.2588,-121.1004 33.2588,-114.8996 33.2588,-114.8996 33.2588,-111.7993 36.3591,-108.6989 39.4595,-108.6989 39.4595,-108.6989 81.058,-108.6989 81.058,-108.6989 84.1584,-108.6989 87.2588,-111.7993 87.2588,-114.8996 87.2588,-114.8996 87.2588,-121.1004 87.2588,-121.1004 87.2588,-124.2007 84.1584,-127.3011 81.058,-127.3011"/>
<text text-anchor="start" x="42.5045" y="-115.3" font-family="Helvetica,sans-Serif" font-size="9.00" fill="#000000">index.tsx</text>
</a>
</g>
</g>
<!-- src/index.tsx&#45;&gt;src/components/App.tsx -->
<g id="edge9" class="edge">
<title>src/index.tsx-&gt;src/components/App.tsx</title>
<path fill="none" stroke="#000000" stroke-width="2" stroke-opacity="0.200000" d="M87.3293,-122.7824C93.4821,-124.8432 99.6351,-127.7894 104.5175,-132 124.9221,-149.5972 135.8713,-180.0149 140.9215,-198.445"/>
<polygon fill="#000000" fill-opacity="0.200000" stroke="#000000" stroke-width="2" stroke-opacity="0.200000" points="138.9892,-199.3617 142.5218,-204.6466 143.056,-198.3122 138.9892,-199.3617"/>
</g>
<!-- src/react&#45;app&#45;env.d.ts -->
<g id="node11" class="node">
<title>src/react-app-env.d.ts</title>
<g id="a_node11"><a xlink:href="src/react-app-env.d.ts" xlink:title="react-app-env.d.ts">
<path fill="#ccffcc" stroke="#000000" d="M98.0769,-96.3011C98.0769,-96.3011 22.4406,-96.3011 22.4406,-96.3011 19.3403,-96.3011 16.2399,-93.2007 16.2399,-90.1004 16.2399,-90.1004 16.2399,-83.8996 16.2399,-83.8996 16.2399,-80.7993 19.3403,-77.6989 22.4406,-77.6989 22.4406,-77.6989 98.0769,-77.6989 98.0769,-77.6989 101.1772,-77.6989 104.2776,-80.7993 104.2776,-83.8996 104.2776,-83.8996 104.2776,-90.1004 104.2776,-90.1004 104.2776,-93.2007 101.1772,-96.3011 98.0769,-96.3011"/>
<text text-anchor="start" x="24" y="-84.3" font-family="Helvetica,sans-Serif" font-size="9.00" fill="#000000">react-app-env.d.ts</text>
</a>
</g>
</g>
<!-- src/setupTests.ts -->
<g id="node12" class="node">
<title>src/setupTests.ts</title>
<g id="a_node12"><a xlink:href="src/setupTests.ts" xlink:title="setupTests.ts">
<path fill="#ccffcc" stroke="#000000" d="M88.5746,-65.3011C88.5746,-65.3011 31.9429,-65.3011 31.9429,-65.3011 28.8425,-65.3011 25.7422,-62.2007 25.7422,-59.1004 25.7422,-59.1004 25.7422,-52.8996 25.7422,-52.8996 25.7422,-49.7993 28.8425,-46.6989 31.9429,-46.6989 31.9429,-46.6989 88.5746,-46.6989 88.5746,-46.6989 91.675,-46.6989 94.7753,-49.7993 94.7753,-52.8996 94.7753,-52.8996 94.7753,-59.1004 94.7753,-59.1004 94.7753,-62.2007 91.675,-65.3011 88.5746,-65.3011"/>
<text text-anchor="start" x="33.5013" y="-53.3" font-family="Helvetica,sans-Serif" font-size="9.00" fill="#000000">setupTests.ts</text>
</a>
</g>
</g>
<!-- src/types.ts -->
<g id="node13" class="node">
<title>src/types.ts</title>
<g id="a_node13"><a xlink:href="src/types.ts" xlink:title="types.ts">
<path fill="#ccffcc" stroke="#000000" d="M81.058,-34.3011C81.058,-34.3011 39.4595,-34.3011 39.4595,-34.3011 36.3591,-34.3011 33.2588,-31.2007 33.2588,-28.1004 33.2588,-28.1004 33.2588,-21.8996 33.2588,-21.8996 33.2588,-18.7993 36.3591,-15.6989 39.4595,-15.6989 39.4595,-15.6989 81.058,-15.6989 81.058,-15.6989 84.1584,-15.6989 87.2588,-18.7993 87.2588,-21.8996 87.2588,-21.8996 87.2588,-28.1004 87.2588,-28.1004 87.2588,-31.2007 84.1584,-34.3011 81.058,-34.3011"/>
<text text-anchor="start" x="44.754" y="-22.3" font-family="Helvetica,sans-Serif" font-size="9.00" fill="#000000">types.ts</text>
</a>
</g>
</g>
<!-- src/utils/sortFunctions.test.ts -->
<g id="node14" class="node">
<title>src/utils/sortFunctions.test.ts</title>
<g id="a_node14"><a xlink:href="src/utils/sortFunctions.test.ts" xlink:title="sortFunctions.test.ts">
<path fill="#ddfeff" stroke="#000000" d="M280.3443,-345.3011C280.3443,-345.3011 196.7082,-345.3011 196.7082,-345.3011 193.6078,-345.3011 190.5075,-342.2007 190.5075,-339.1004 190.5075,-339.1004 190.5075,-332.8996 190.5075,-332.8996 190.5075,-329.7993 193.6078,-326.6989 196.7082,-326.6989 196.7082,-326.6989 280.3443,-326.6989 280.3443,-326.6989 283.4447,-326.6989 286.545,-329.7993 286.545,-332.8996 286.545,-332.8996 286.545,-339.1004 286.545,-339.1004 286.545,-342.2007 283.4447,-345.3011 280.3443,-345.3011"/>
<text text-anchor="start" x="198.2674" y="-333.3" font-family="Helvetica,sans-Serif" font-size="9.00" fill="#000000">sortFunctions.test.ts</text>
</a>
</g>
</g>
<!-- src/utils/sortFunctions.test.ts&#45;&gt;src/utils/sortFunctions.ts -->
<g id="edge10" class="edge">
<title>src/utils/sortFunctions.test.ts-&gt;src/utils/sortFunctions.ts</title>
<path fill="none" stroke="#000000" stroke-width="2" stroke-opacity="0.200000" d="M286.5989,-342.754C290.8382,-343.3496 295.1226,-343.9516 299.3437,-344.5446"/>
<polygon fill="#000000" fill-opacity="0.200000" stroke="#000000" stroke-width="2" stroke-opacity="0.200000" points="299.2364,-346.6501 305.4703,-345.4054 299.8208,-342.491 299.2364,-346.6501"/>
</g>
</g>
</svg>